<svg width="675" height="205" viewBox="0 0 675 205" fill="none" xmlns="http://www.w3.org/2000/svg">
<g filter="url(#filter0_d)">
<path d="M105.168 149V102.92L144.192 48.2H126.336L97.536 88.952L68.736 48.2H50.304L89.328 103.352V149H105.168ZM223.365 125.384C216.597 118.184 213.285 109.256 213.285 98.6C213.285 87.944 216.597 79.016 223.365 71.96C230.133 64.76 238.485 61.16 248.421 61.16C258.357 61.16 266.709 64.76 273.477 71.96C280.245 79.016 283.701 87.944 283.701 98.6C283.701 109.256 280.245 118.184 273.477 125.384C266.709 132.44 258.357 136.04 248.421 136.04C238.485 136.04 230.133 132.44 223.365 125.384ZM285.285 135.896C295.077 125.816 299.973 113.432 299.973 98.6C299.973 83.768 295.077 71.384 285.285 61.448C275.493 51.368 263.253 46.328 248.421 46.328C233.589 46.328 221.349 51.368 211.557 61.448C201.909 71.384 197.013 83.768 197.013 98.6C197.013 113.432 201.909 125.816 211.557 135.896C221.349 145.832 233.589 150.872 248.421 150.872C263.253 150.872 275.493 145.832 285.285 135.896ZM419.186 150.872C436.034 150.872 451.154 143.816 459.362 134.024V90.824H443.522V127.544C437.618 133.16 429.41 136.04 419.186 136.04C408.962 136.04 400.466 132.584 393.41 125.816C386.498 118.904 383.042 109.832 383.042 98.744C383.042 87.656 386.642 78.728 393.698 71.672C400.754 64.616 409.826 61.16 420.77 61.16C431.57 61.16 441.65 64.328 450.866 70.664V54.968C442.37 49.208 432.002 46.328 419.762 46.328C404.642 46.328 391.97 51.224 381.89 61.16C371.81 70.952 366.77 83.48 366.77 98.6C366.77 113.72 371.81 126.248 381.746 136.184C391.826 145.976 404.354 150.872 419.186 150.872ZM538.334 149L549.134 123.944H596.942L607.886 149H624.878L580.814 47.624H565.55L521.486 149H538.334ZM573.038 67.64L591.47 109.976H554.606L573.038 67.64Z" fill="white"/>
</g>
<defs>
<filter id="filter0_d" x="0.303986" y="0.328003" width="674.573" height="204.544" filterUnits="userSpaceOnUse" color-interpolation-filters="sRGB">
<feFlood flood-opacity="0" result="BackgroundImageFix"/>
<feColorMatrix in="SourceAlpha" type="matrix" values="0 0 0 0 0 0 0 0 0 0 0 0 0 0 0 0 0 0 127 0"/>
<feOffset dy="4"/>
<feGaussianBlur stdDeviation="25"/>
<feColorMatrix type="matrix" values="0 0 0 0 0.513726 0 0 0 0 0.45098 0 0 0 0 0.631373 0 0 0 0.6 0"/>
<feBlend mode="normal" in2="BackgroundImageFix" result="effect1_dropShadow"/>
<feBlend mode="normal" in="SourceGraphic" in2="effect1_dropShadow" result="shape"/>
</filter>
</defs>
</svg>
