<svg width="320" height="149" viewBox="0 0 320 149" fill="none" xmlns="http://www.w3.org/2000/svg">
<g filter="url(#filter0_d)">
<path d="M57.599 94H50.229V72.761L32.072 47.1H40.648L54.048 66.061L67.448 47.1H75.756L57.599 72.56V94ZM107.233 83.012C110.405 86.3173 114.291 87.97 118.891 87.97C123.492 87.97 127.378 86.3173 130.549 83.012C133.721 79.6173 135.306 75.4633 135.306 70.55C135.306 65.592 133.721 61.4603 130.549 58.155C127.378 54.805 123.492 53.13 118.891 53.13C114.291 53.13 110.405 54.805 107.233 58.155C104.107 61.4157 102.543 65.5473 102.543 70.55C102.543 75.5527 104.107 79.7067 107.233 83.012ZM136.043 87.903C131.487 92.5483 125.77 94.871 118.891 94.871C112.013 94.871 106.295 92.5483 101.739 87.903C97.2281 83.1683 94.9724 77.384 94.9724 70.55C94.9724 63.6713 97.2281 57.9093 101.739 53.264C106.295 48.574 112.013 46.229 118.891 46.229C125.77 46.229 131.487 48.574 136.043 53.264C140.599 57.9093 142.877 63.6713 142.877 70.55C142.877 77.4287 140.599 83.213 136.043 87.903ZM192.985 94.871C186.061 94.871 180.255 92.593 175.565 88.037C170.919 83.3917 168.597 77.5627 168.597 70.55C168.597 63.4927 170.942 57.686 175.632 53.13C180.277 48.5293 186.151 46.229 193.253 46.229C198.97 46.229 203.794 47.569 207.725 50.249V57.552C203.437 54.604 198.769 53.13 193.722 53.13C188.585 53.13 184.386 54.7603 181.126 58.021C177.82 61.3263 176.168 65.525 176.168 70.617C176.168 75.7983 177.776 79.997 180.992 83.213C184.297 86.3843 188.295 87.97 192.985 87.97C197.764 87.97 201.538 86.6523 204.308 84.017V66.932H211.678V87.032C209.712 89.3547 207.055 91.253 203.705 92.727C200.399 94.1563 196.826 94.871 192.985 94.871ZM243.061 94H235.222L255.724 46.832H262.826L283.328 94H275.422L270.33 82.342H248.086L243.061 94ZM259.208 56.145L250.632 75.843H267.784L259.208 56.145Z" fill="white"/>
</g>
<defs>
<filter id="filter0_d" x="-17.928" y="0.229004" width="351.256" height="148.642" filterUnits="userSpaceOnUse" color-interpolation-filters="sRGB">
<feFlood flood-opacity="0" result="BackgroundImageFix"/>
<feColorMatrix in="SourceAlpha" type="matrix" values="0 0 0 0 0 0 0 0 0 0 0 0 0 0 0 0 0 0 127 0"/>
<feOffset dy="4"/>
<feGaussianBlur stdDeviation="25"/>
<feColorMatrix type="matrix" values="0 0 0 0 0.513726 0 0 0 0 0.45098 0 0 0 0 0.631373 0 0 0 0.6 0"/>
<feBlend mode="normal" in2="BackgroundImageFix" result="effect1_dropShadow"/>
<feBlend mode="normal" in="SourceGraphic" in2="effect1_dropShadow" result="shape"/>
</filter>
</defs>
</svg>
